<svg xmlns="http://www.w3.org/2000/svg" viewBox="0 0 800 600" width="100%" height="100%">
  <defs>
    <linearGradient id="bg-phone_ptt_orange" x1="0" y1="0" x2="1" y2="1">
      <stop offset="0%" stop-color="#3a2f26"/>
      <stop offset="50%" stop-color="#221b16"/>
      <stop offset="100%" stop-color="#140f0c"/>
    </linearGradient>
    <filter id="shadow-phone_ptt_orange" x="-10%" y="-10%" width="130%" height="130%">
      <feDropShadow dx="4" dy="12" stdDeviation="10" flood-color="#000000" flood-opacity="0.65"/>
    </filter>
    <linearGradient id="metal-grad" x1="0" y1="0" x2="1" y2="0">
      <stop offset="0%" stop-color="#8c8c8e"/>
      <stop offset="30%" stop-color="#d4d4d8"/>
      <stop offset="70%" stop-color="#a1a1aa"/>
      <stop offset="100%" stop-color="#52525b"/>
    </linearGradient>
    <linearGradient id="gold-grad" x1="0" y1="0" x2="1" y2="1">
      <stop offset="0%" stop-color="#c59b27"/>
      <stop offset="50%" stop-color="#f3e5ab"/>
      <stop offset="100%" stop-color="#855814"/>
    </linearGradient>
  </defs>

  <!-- Background surface -->
  <rect width="800" height="600" fill="url(#bg-phone_ptt_orange)" />
  <rect width="800" height="600" fill="#000000" opacity="0.2" />

  <!-- Frame border accent -->
  <rect x="20" y="20" width="760" height="560" rx="12" fill="none" stroke="#5a4332" stroke-width="1.5" opacity="0.4"/>

  <!-- Main Illustration Group -->
  <g id="illustration" filter="url(#shadow-phone_ptt_orange)">
    
      <g transform="translate(200, 100)">
        <!-- Base S63 Orange -->
        <path d="M 60 180 L 340 180 L 370 340 L 30 340 Z" fill="#ea580c" stroke="#c2410c" stroke-width="4"/>
        <!-- Rotary Dial -->
        <circle cx="200" cy="250" r="65" fill="#f8fafc" stroke="#cbd5e1" stroke-width="3"/>
        <circle cx="200" cy="250" r="22" fill="#ea580c"/>
        <circle cx="222" cy="211.8948822334847" r="9" fill="#0f172a" stroke="#ffffff" stroke-width="1.5"/><circle cx="238.10511776651532" cy="228" r="9" fill="#0f172a" stroke="#ffffff" stroke-width="1.5"/><circle cx="244" cy="250" r="9" fill="#0f172a" stroke="#ffffff" stroke-width="1.5"/><circle cx="238.10511776651532" cy="272" r="9" fill="#0f172a" stroke="#ffffff" stroke-width="1.5"/><circle cx="222" cy="288.1051177665153" r="9" fill="#0f172a" stroke="#ffffff" stroke-width="1.5"/><circle cx="200" cy="294" r="9" fill="#0f172a" stroke="#ffffff" stroke-width="1.5"/><circle cx="178" cy="288.1051177665153" r="9" fill="#0f172a" stroke="#ffffff" stroke-width="1.5"/><circle cx="161.89488223348468" cy="272" r="9" fill="#0f172a" stroke="#ffffff" stroke-width="1.5"/><circle cx="156" cy="250" r="9" fill="#0f172a" stroke="#ffffff" stroke-width="1.5"/><circle cx="161.8948822334847" cy="228" r="9" fill="#0f172a" stroke="#ffffff" stroke-width="1.5"/>
        <!-- Handset on top cradle -->
        <path d="M 20 120 Q 200 150 380 120 L 360 80 Q 200 110 40 80 Z" fill="#ea580c" stroke="#9a3412" stroke-width="3"/>
        <circle cx="40" cy="100" r="35" fill="#ea580c"/>
        <circle cx="360" cy="100" r="35" fill="#ea580c"/>
      </g>
    
  </g>

  <!-- Elegant Category Badge & Title -->
  <g transform="translate(40, 530)">
    <rect x="0" y="0" width="720" height="42" rx="6" fill="#140f0c" opacity="0.85" stroke="#3d2c20" stroke-width="1"/>
    <text x="24" y="26" fill="#f5ede3" font-family="'Cinzel', Georgia, serif" font-size="14" font-weight="bold" letter-spacing="1.5">TÉLÉPHONE VINTAGE À CADRAN ROTATIF ORANGE PTT</text>
    <text x="696" y="26" fill="#c4a482" font-family="'Cormorant Garamond', Georgia, serif" font-style="italic" font-size="13" text-anchor="end">CASA MADRE • DÉPÔT ZERKTOUNI</text>
  </g>
</svg>