<svg xmlns="http://www.w3.org/2000/svg" viewBox="0 0 800 600" width="100%" height="100%">
  <defs>
    <linearGradient id="bg-portable_tv_radio" x1="0" y1="0" x2="1" y2="1">
      <stop offset="0%" stop-color="#342820"/>
      <stop offset="50%" stop-color="#1e1713"/>
      <stop offset="100%" stop-color="#120d0a"/>
    </linearGradient>
    <filter id="shadow-portable_tv_radio" x="-10%" y="-10%" width="130%" height="130%">
      <feDropShadow dx="4" dy="12" stdDeviation="10" flood-color="#000000" flood-opacity="0.65"/>
    </filter>
    <linearGradient id="metal-grad" x1="0" y1="0" x2="1" y2="0">
      <stop offset="0%" stop-color="#8c8c8e"/>
      <stop offset="30%" stop-color="#d4d4d8"/>
      <stop offset="70%" stop-color="#a1a1aa"/>
      <stop offset="100%" stop-color="#52525b"/>
    </linearGradient>
    <linearGradient id="gold-grad" x1="0" y1="0" x2="1" y2="1">
      <stop offset="0%" stop-color="#c59b27"/>
      <stop offset="50%" stop-color="#f3e5ab"/>
      <stop offset="100%" stop-color="#855814"/>
    </linearGradient>
    <linearGradient id="screen-glow" x1="0" y1="0" x2="0" y2="1">
      <stop offset="0%" stop-color="#38bdf8" stop-opacity="0.3"/>
      <stop offset="100%" stop-color="#0284c7" stop-opacity="0.1"/>
    </linearGradient>
  </defs>

  <rect width="800" height="600" fill="url(#bg-portable_tv_radio)" />
  <rect width="800" height="600" fill="#000000" opacity="0.2" />
  <rect x="20" y="20" width="760" height="560" rx="12" fill="none" stroke="#5a4332" stroke-width="1.5" opacity="0.4"/>

  <g id="illustration" filter="url(#shadow-portable_tv_radio)">
    
      <g transform="translate(170, 90)">
        <rect x="50" y="50" width="360" height="320" rx="20" fill="#475569" stroke="#1e293b" stroke-width="4"/>
        <!-- Handle -->
        <path d="M 140 50 L 140 20 L 320 20 L 320 50" fill="none" stroke="#334155" stroke-width="16" stroke-linecap="round"/>
        <!-- Small round screen -->
        <rect x="80" y="90" width="200" height="180" rx="16" fill="#0284c7" opacity="0.3" stroke="#0f172a" stroke-width="3"/>
        <rect x="90" y="100" width="180" height="160" rx="12" fill="#0f172a"/>
        <ellipse cx="180" cy="180" rx="70" ry="60" fill="url(#screen-glow)"/>
        <!-- Right side knobs & tuning -->
        <circle cx="330" cy="120" r="24" fill="#1e293b" stroke="#94a3b8" stroke-width="2"/>
        <circle cx="330" cy="190" r="24" fill="#1e293b" stroke="#94a3b8" stroke-width="2"/>
        <rect x="300" y="240" width="60" height="40" rx="4" fill="#1e293b"/>
      </g>
    
  </g>

  <g transform="translate(40, 530)">
    <rect x="0" y="0" width="720" height="42" rx="6" fill="#140f0c" opacity="0.85" stroke="#3d2c20" stroke-width="1"/>
    <text x="24" y="26" fill="#f5ede3" font-family="'Cinzel', Georgia, serif" font-size="14" font-weight="bold" letter-spacing="1.5">TÉLÉVISEUR PORTABLE COMBINÉ RADIO RÉTRO</text>
    <text x="696" y="26" fill="#c4a482" font-family="'Cormorant Garamond', Georgia, serif" font-style="italic" font-size="13" text-anchor="end">CASA MADRE • DÉPÔT ZERKTOUNI</text>
  </g>
</svg>